<svg xmlns="http://www.w3.org/2000/svg" width="200" height="200" fill="none" viewBox="0 0 200 200">
<!-- SVG created with Arrow, by QuiverAI (https://quiver.ai) -->
  <path d="m118 89.24c3.6-2.18 4.79-2.6 10.7-2.31 5.91 0.28 10.37 0.28 13.97 5.13s4.42 12.63 3.03 20.69l-13.93-10.69-10.41 1.87-1.46 1.18-1.9-15.87z" fill="#CDA007" stroke="#000" stroke-miterlimit="10" stroke-width="1.5"/>
  <path d="m144.6 96.19c-2.51-3.78-5.34-5.48-9.33-4.79-6.11 1.07-10.2 7.31-11.53 11.82l5.35-0.61 4.71 0.54 11.59 8.13c1.07-4.79 1.14-11.22-0.79-15.09z" fill="#AD7C02" stroke="#000" stroke-miterlimit="10" stroke-width="1.08"/>
  <path d="m118.7 89.93c3.96-2.87 7.04-2.72 11.5-2.37 5.91 0.46 11 1.65 14.53 8.36-2.12-3.03-5.78-4.66-9.03-4.21-6.78 0.97-11.63 8.14-13.62 13.4l-2.87 0.62-0.51-15.8z" fill="#F0D975"/>
  <path d="m37.81 144.6c-0.76 2.25 3.3 8.23 2.2 13.08-0.82 3.85-0.89 4.2 2.71 4.33 2.41 0.07 6.19-2.59 6.33-4.33 0.41-4.99-0.84-6.79 2.76-12.56l16.28-32.33c-3.96-10.01-7.04-15.07-12.13-13.75-6.11 1.64-10.83 7.95-10.83 18.85 0 7.03 2.12 16.83-2.97 23.21-2.42 3.22-3.8 2.33-4.35 3.5z" fill="#CDA007" stroke="#000" stroke-miterlimit="10" stroke-width="1.2"/>
  <path d="m39.12 145.2c-0.28 1.56 3.32 5.87 1.93 13.51-0.28 1.49-0.14 1.98 0.68 1.98 1.53 0 2.99-0.62 3.4-1.56 1.22-3.04-0.96-6.87 3-14.17-4.24-6.45-4.1-10.29-3.69-20.58 0.35-8.72 2.29-22.37 10.42-24.37 5.77-1.45 11.95 5.57 14.75 12.09l-0.96-21.95c-2.94-1.39-5.74-0.85-7.6-0.34-9.31 2.34-17.99 11.19-19.52 27.99-0.9 10.09 1.6 15.28-0.62 20.3-1.03 2.6-2.96 5.4-1.79 7.1z" fill="#CDA007" stroke="#000" stroke-miterlimit="10" stroke-width="1.08"/>
  <path d="m117.7 30.09c-2.87-5.12 0.42-13.04 3.22-15.91 1.99-2 0-4.94-2.35-7.67-2-2.39-3.86-0.9-8.88-1.48-2.29-0.28-2.77 1.14-2.98 3.14-0.83 7.89-2.82 14.47-9.53 18.46-17.51 9.2-26.4 29.39-28.99 54.76-2.48 25.1 3.7 48.53 11.62 62.59 6.39 11.24 10.06 14.85 8.46 24.19-1.1 6.65-11.1 17.69-11.38 22.54-0.13 2.8 11.1 4.4 17.42 4.29 4.53-0.1 7.82-1.07 7.82-2.7 0-3.41-4.21-9.25-13.72-9.46 3.22-5.83 6.68-10.55 7.16-16.59 4.85 6.04 12.38 10.89 18.36 13.21-1.53 3-2.69 6.4-2.41 7.23 0.96 2.73 12.2 3.56 17.55 3.28 4.02-0.21 5.62-0.76 6.31-3.15 2.29 2.6 5.51 3.01 9.79-1.3 3.53-3.61 3.53-6.48 1.01-8.38-2.8-2.11-2.39-7.03-4.19-12.8-3.25-10.62-11.1-18.99-15.56-29.21l1.29-13.93c6.65 6.18 9.72 22.71 24.05 25.13 6.15 1.03 9.93-1.39 9.93-4.12 0-1.6-0.83-1.39-2.89-3.09-6.42-5.16-6.22-16.96-13.2-27.52-6.58-9.74-15.61-10.82-23.53-6.14-0.96 0.55-2.06 0.27-2.06-1.73 0-6.96 2.87-16.8 3.63-33.67 0.76-16.94 1.14-27.23-5.95-39.97z" fill="#F6D631" stroke="#000" stroke-miterlimit="10" stroke-width="1.5"/>
  <path d="m119.4 12.25c0.63-0.97-0.62-3.29-2.62-5.4-1.67-1.76-3.05-1.69-7.33-1.89-1.87-0.1-1.35 1.21-1.15 3.07 0.48 4.79-1.24 14.13-7.29 18.98-6.91 5.63-11.93 14.22-13.01 21.72 3.22-7.64 7.87-14.53 16.62-20.77 4.79-3.48 6.25-10.64 6.25-20 1.17 1.35 3.13 3.6 5.29 3.95 1.55 0.34 2.42 0.27 3.24 0.34z" fill="#D8B628"/>
  <path d="m119.7 12.11c0-1.25-2.69-4.85-4.42-5.81-1.46-0.83-4.05-0.89-6.2-0.89-1.24 0-0.86 1.31-0.48 2.42 0.96 2.93 5.56 4.98 8.2 4.63 1.42-0.21 2.11-0.21 2.9-0.35z" fill="#4A1E06" stroke="#000" stroke-miterlimit="10" stroke-width="1.5"/>
  <path d="m115.1 14.67c-1.46 4.06-2.22 8.18-2.15 12.03 0.83 0.35 1.79 0.83 2.14 0.62-0.41-4.23 1.39-10.07 4.15-13.68 0.7-0.97-0.55-1.59-1.2-1.46-1.35 0.28-2.18 0.49-2.94 2.49z" fill="#E4E673"/>
  <path d="m115.2 34.2c3.25 2.93 5.05 9.89 4.22 18.02-0.14 1.32-1.49 0.7-1.63-1-0.38-4.58-0.59-9.16-2.8-15.77-0.35-1.11-0.35-1.8 0.21-1.25z" fill="#F9F0A9"/>
  <path d="m128 152.9c3.89 3.28 7.78 9.18 8.91 14.1 0.48 2.12-0.88 2.6-1.77 0.8-2.26-4.58-4.31-9-7.32-13.65-0.76-1.25-0.69-2.01 0.18-1.25z" fill="#F9F0A9"/>
  <path d="m93.45 153.1c1.61 4.99 1.02 8.49 0.82 11.02 4.39 5.57 12.44 11.88 20.04 14.47 6.91 2.49 12.92 3.39 22.16 9.36l1.66-3.78c-10.69-5.58-23.54-13.36-31.66-26.15-3.46-5.2-6.56-7.93-9.6-9.35-2.02-0.97-4.65 0.21-3.42 4.43z" fill="#CAA111"/>
  <path d="m114.9 180.1c3.15 1.6 6.75 2.63 10.07 3.15 3.22 0.48 5.78 1.66 8.72 3.77-1.23 1.83-2.8 1.83-6.5 1.69-6.05-0.28-12.99-1.11-14.51-3-0.55-0.69 0.69-3.91 2.22-5.61z" fill="#CAA111" stroke="#000" stroke-miterlimit="10" stroke-width="1.5"/>
  <path d="m146.4 178.6c-1.8-1.42-6.01 0.35-7.84 5.85-1.03 3.31-0.07 4.52 1.63 4.24 4.03-0.66 8.53-8.02 6.21-10.09z" fill="#3A1E03" stroke="#000" stroke-miterlimit="10" stroke-width="1.08"/>
  <path d="m85.02 183.3c3.78-1.11 12.74 0.38 14.89 5.23 1.24 3 1.03 4.29-3.25 4.95-5.2 0.83-14.91-1.07-17.64-2.8-1.67-1.08-0.07-4.3 1.73-6.3 1.28-1.5 1.9-0.45 4.27-1.08z" fill="#F6D631" stroke="#000" stroke-miterlimit="10" stroke-width=".75"/>
  <path d="m79.16 165.1c0.69-1.99-2.01-8.96-7.92-13.27-6.49-4.71-9.05-13.61-7.25-21.18 2.03-8.83 9.22-15.28 16.27-14.87l-1.9-2.86c-7.12-0.97-17.25-0.04-24.09 5.21-7.02 5.48-8.92 16.93-4 24.57 3.15 4.9 8.57 7.08 12.96 8.85 5.42 2.18 8.08 6.63 6.49 10.69-0.97 2.73-3.56 4.92-2.11 8.01 1.14 2.66 6.7 2.73 8.3 0.51 2.18-3 2.66-3.9 3.25-5.66z" fill="#F6D631" stroke="#000" stroke-miterlimit="10" stroke-width="1.08"/>
  <path d="m72.73 162.7c-0.9 2.25-1.66 4.37-1.28 6.35 0.28 1.31 2.63 1.1 3.6-0.21 1.38-1.94 2.21-3.08 2.76-4.46-0.97-3.19-2.96-6.28-4.12-7.6 0.66 1.67 0.07 3.44-0.96 5.92z" fill="#D8B628"/>
  <path d="m100 126.8c0.76-5.9 4.61-12.01 12.16-11.8 3.6 0.1 7.85 1.66 9.94 3.23l-0.96 11.66-3.38 2-5.64-2.8-5.56 0.97-5.16 4.22-1.4-7.48z" fill="#CAA111" stroke="#000" stroke-miterlimit="10" stroke-width=".75"/>
  <path d="m85.16 113.9c6.51 2.25 11.57 7.24 14.37 12.85l0.83 3.3-1.24 3.94-8.49-3.94-6.71-3.3 1.24-12.85z" fill="#CAA111" stroke="#000" stroke-miterlimit="10" stroke-width=".75"/>
  <path d="m100.6 127.1c0.62-5.02 5.15-12.05 13.68-10.87 9.52 1.31 15.73 14.47 19.33 19.8 5.09 7.49 10.25 10.02 15.31 10.22 5.91 0.28 9.76-0.65 11.22-3.21 0.76-1.42-1.04-2.04-2.56-3.53-5.84-5.57-6.05-13.45-11-23.53-4.18-8.44-12.9-13.93-22.5-10.96-11.04 0-22.08 7.03-23.48 22.08z" fill="#F9E398" stroke="#000" stroke-miterlimit="10" stroke-width=".75"/>
  <path d="m104.9 115.7c3.15-2.35 7.26-2.9 12.97-0.27 9.87 4.51 14.05 14.69 19.21 21.31 4.82 6.16 8.97 6.99 12.67 7.2 3.6 0.21 5.6-0.21 8.06-1.11-2.39-0.83-5.67-2.91-8.34-7.71-4.27-7.71-8.13-19.97-16.32-26.93-5.55-4.85-10.01-3.39-11.4-2.88-6.68 0.35-13.04 2.11-16.85 10.39z" fill="#EACE76"/>
  <path d="m123.1 105.2c5.3 0.42 10.57 5.54 14.49 12.64" stroke="#000" stroke-linecap="round" stroke-miterlimit="10" stroke-width=".75"/>
  <path d="m77.95 107.4c-0.28 9.98 4.7 21.5 15.97 31.27-0.96 3.41-0.27 7.63 3.51 11.62 2.28 2.53 2.55 5.75 4.01 8 1.9 3.07 4.49 1.79 4.01-1.31-0.28-1.8-0.56-3.29-0.14-3.91 1.89 2.11 3.76 4.37 5.75 5.33 2.77 1.32 4.36-1.48 2.91-3.7-0.63-0.97-1.39-2.11-2.15-3.32 1.59 1.31 4.01 2.77 5.91 1.73 1.28-0.69 1.35-2.01 1.49-3.08 1.25 1.56 3.5 1.7 4.89-0.76 1.45-2.73 2.84-11.42 1.78-13.29-0.97-1.77-1.93-3.6-2.41-5.37-0.76 1.49-1.66 2.04-3.42 1.7-2.63-0.55-5.19 0.83-6.37 1.38-1.52-0.48-3.77-1.1-4.25 0.66-0.48 1.63-1.66 1.35-3.28 1.07-1.39-0.28-3.25-0.07-5.25 0.35-9.8-9.73-16.15-17.74-17.33-29.79" fill="#F6D631"/>
  <path d="m77.95 107.4c-0.28 9.98 4.7 21.5 15.97 31.27-0.96 3.41-0.27 7.63 3.51 11.62 2.28 2.53 2.55 5.75 4.01 8 1.9 3.07 4.49 1.79 4.01-1.31-0.28-1.8-0.56-3.29-0.14-3.91 1.89 2.11 3.76 4.37 5.75 5.33 2.77 1.32 4.36-1.48 2.91-3.7-0.63-0.97-2.69-3.7-3.72-5.3 1.99 1.32 4.48 3.64 6.7 3.02 1.86-0.56 2-3.29 2.27-4.36 0.9 1.56 2.53 2.87 4.4 0.62 1.93-2.45 3.16-10.8 2.27-12.7-0.83-1.87-1.93-3.6-2.41-5.37-0.76 1.49-1.66 2.04-3.42 1.7-2.63-0.55-4.92 1.21-6.37 1.38-2.07 0.21-3.44-1.1-4.25 0.66-0.76 1.77-1.66 1.35-3.28 1.07-1.39-0.28-3.25-0.07-5.25 0.35-9.8-9.73-16.15-17.74-17.33-29.79" stroke="#000" stroke-miterlimit="10" stroke-width=".75"/>
  <path d="m116 146.9c1.62-1.9 2.79-3.73 3.31-4.76" stroke="#000" stroke-linecap="round" stroke-miterlimit="10" stroke-width=".75"/>
  <path d="m108.6 146c2.36 1.59 4.8 3.14 7.16 4.11" stroke="#000" stroke-linecap="round" stroke-miterlimit="10" stroke-width=".75"/>
  <path d="m108.3 139.9c-0.27 2.18 3.62 5.24 6.74 7.21 2.15-2.11 1.6-6.1 0.64-11.02-1.4 1.77-1.6 3.53-7.38 3.81z" stroke="#000" stroke-linecap="round" stroke-miterlimit="10" stroke-width=".75"/>
  <path d="m52.02 134.2c0.76-10.08 7.04-18.21 19.91-19.98" stroke="#F9F0A9" stroke-linecap="round" stroke-miterlimit="10" stroke-width=".75"/>
  <path d="m82.92 125.2c1.83 10.09 3.12 19.06 8.19 24.7l-4.46-0.69c-2.15-4.22-8.64-15.16-11.12-28.02l2.42-2.94 4.97 6.95z" fill="#D8B628"/>
  <path d="m114.9 80.01c-3.66 0-5.53 1.63-5.53 3.63s2.42 3.9 5.39 3.76c3.01-0.14 4.63-2.25 4.63-4.25s-1.41-3.14-4.49-3.14z" fill="url(#paint0_radial_2312_24608)" opacity=".5"/>
  <path d="m87.76 77.83c-4.05 0-5.5 1.9-5.5 4.08 0 2.53 2.56 4.16 5.91 4.16 3.92 0 6.48-2.15 6.48-4.57 0-2.08-1.9-3.67-6.89-3.67z" fill="url(#paint1_radial_2312_24608)" opacity=".5"/>
  <path d="m97.84 57.92c-6.11 0-9.33 5.9-9.33 10.82 0 5.9 3.5 9.3 8.15 9.3 5.77 0 10.36-5.09 10.36-10.32 0-4.85-3.25-9.8-9.18-9.8z" fill="#fff" stroke="#000" stroke-miterlimit="10" stroke-width="1.08"/>
  <path d="m116.9 60.03c-5.53 0-8.54 5.9-8.54 10.31 0 5.7 2.8 8.87 7.19 8.87 5.09 0 8.83-5.7 8.83-9.69 0-4.58-1.9-9.49-7.48-9.49z" fill="#fff" stroke="#000" stroke-miterlimit="10" stroke-width="1.08"/>
  <path d="m100.5 70.61c-1.9 0-2.66 1.25-2.66 2.5 0 1.52 0.97 2.42 2.11 2.42 1.59 0 2.76-1.49 2.76-2.74 0-1.28-0.89-2.18-2.21-2.18z" fill="#000"/>
  <path d="m100.8 72.24c-0.55 0-0.76 0.42-0.76 0.77 0 0.51 0.35 0.79 0.69 0.79 0.62 0 1.04-0.62 1.04-1.07 0-0.42-0.35-0.49-0.97-0.49z" fill="#FFFFFE"/>
  <path d="m115.9 72.93c-1.96 0-2.58 1.32-2.58 2.46 0 1.42 1.1 2.25 2.34 2.25 1.56 0 2.66-1.38 2.66-2.56 0-1.25-0.97-2.15-2.42-2.15z" fill="#000"/>
  <path d="m116.1 74.11c-0.63 0-0.84 0.41-0.84 0.83 0 0.52 0.35 0.8 0.77 0.8 0.62 0 1.04-0.63 1.04-1.08 0-0.48-0.35-0.55-0.97-0.55z" fill="#FFFFFE"/>
  <path d="m100.3 52.36c1.38-2.11 1.93-1.9 3.1-1.42 1.39 0.62 1.77 2.18-0.35 4.3-3.1 3.09-7.89 4.79-13.8 4.17-2.06-0.28-1.17-1.35 0.22-1.35 4.02 0 8.48-2.18 10.83-5.7z" fill="#000"/>
  <path d="m113.6 52.84c-1.31 0.42-1.18 3.22 0.55 5.47 2.09 2.73 5.75 4.56 7.58 5.05 1.73 0.48 2.08-1.35 1.12-1.63-2.81-0.9-5.78-2.87-7.03-5.6-0.97-2.11-0.9-3.77-2.22-3.29z" fill="#000"/>
  <path d="m106.6 49.07c1.1 1.18 1.17 3.98 0 5.88" stroke="#000" stroke-linecap="round" stroke-miterlimit="10" stroke-width=".5"/>
  <path d="m90.15 96.81c-3.08 0-3.5-2.87-3.08-4.77" stroke="#000" stroke-linecap="round" stroke-miterlimit="10" stroke-width=".5"/>
  <path d="m107.4 97.64c-1.66-1.11-5.52-0.9-8.56 0.59-0.9 0.42-0.35 1.66 0.72 1.52 1.62-0.2 4.18 0.07 6.53-0.82 1.38-0.56 1.79-0.97 1.31-1.29z" fill="url(#paint2_radial_2312_24608)"/>
  <path d="m93.03 87.71c2.03-2.66 5.08-4.29 10.68-4.29 5.91 0 8.12 1.04 10.05 2.74 2.87 2.59 2.49 9.89-0.45 10.44-3.15 0.62-6.84-3.99-12.3-3.99-4.85 0-6.3 2.49-9.9 3.45-2.8 0.75-2.25-3.38-1.09-6.11 0.55-1.34 1.65-1.48 3.01-2.24z" fill="#350901" stroke="#000" stroke-miterlimit="10" stroke-width=".75"/>
  <path d="m94.65 86.61c1.86-1.9 4.16-3.19 8.98-3.19 4.29 0 6.44 0.83 7.96 2.22-0.62 2-2.42 2.97-6.38 2.97-4.47 0-7.93-0.76-10.56-2z" fill="#fff" stroke="#000" stroke-miterlimit="10" stroke-width=".5"/>
  <defs>
    <radialGradient id="paint0_radial_2312_24608" cx="0" cy="0" r="1" gradientTransform="translate(114.3 83.27) scale(6.258 5.049)" gradientUnits="userSpaceOnUse">
      <stop stop-color="#F16158" offset="0"/>
      <stop stop-color="#F16158" stop-opacity=".21" offset="1"/>
    </radialGradient>
    <radialGradient id="paint1_radial_2312_24608" cx="0" cy="0" r="1" gradientTransform="translate(88.46 81.51) scale(7.057 5.699)" gradientUnits="userSpaceOnUse">
      <stop stop-color="#F16158" offset="0"/>
      <stop stop-color="#F16158" stop-opacity=".21" offset="1"/>
    </radialGradient>
    <radialGradient id="paint2_radial_2312_24608" cx="0" cy="0" r="1" gradientTransform="translate(102.9 98.23) scale(4.007 1.739)" gradientUnits="userSpaceOnUse">
      <stop stop-color="#F16158" offset="0"/>
      <stop stop-color="#F16158" stop-opacity=".21" offset="1"/>
    </radialGradient>
  </defs>
</svg>